<mxfile host="app.diagrams.net" modified="2023-04-30T23:01:55.733Z" agent="Mozilla/5.0 (X11; Linux x86_64) AppleWebKit/537.36 (KHTML, like Gecko) Chrome/106.0.0.0 Safari/537.36" etag="thEaFd8yPm0HZki2ivA_" version="21.1.4" type="device" pages="2">
  <diagram id="244mS9zNh_xSva6xnjS1" name="Страница 1">
    <mxGraphModel dx="1259" dy="1826" grid="1" gridSize="10" guides="1" tooltips="1" connect="1" arrows="1" fold="1" page="1" pageScale="1" pageWidth="827" pageHeight="1169" math="0" shadow="0">
      <root>
        <mxCell id="0" />
        <mxCell id="1" parent="0" />
        <mxCell id="MEnZoygMXlPPVWilbi8o-1" value="Единицы иностранного языка" style="shape=ext;margin=3;double=1;whiteSpace=wrap;html=1;align=center;" parent="1" vertex="1">
          <mxGeometry x="200" y="280" width="120" height="50" as="geometry" />
        </mxCell>
        <mxCell id="MEnZoygMXlPPVWilbi8o-2" value="Единицы русского языка" style="shape=ext;margin=3;double=1;whiteSpace=wrap;html=1;align=center;" parent="1" vertex="1">
          <mxGeometry x="520" y="280" width="120" height="50" as="geometry" />
        </mxCell>
        <mxCell id="MEnZoygMXlPPVWilbi8o-4" value="Соответствуют" style="shape=rhombus;perimeter=rhombusPerimeter;whiteSpace=wrap;html=1;align=center;" parent="1" vertex="1">
          <mxGeometry x="200" y="530.19" width="120" height="40" as="geometry" />
        </mxCell>
        <mxCell id="MEnZoygMXlPPVWilbi8o-9" value="Соответствуют" style="shape=rhombus;perimeter=rhombusPerimeter;whiteSpace=wrap;html=1;align=center;" parent="1" vertex="1">
          <mxGeometry x="520" y="530.19" width="120" height="40" as="geometry" />
        </mxCell>
        <mxCell id="MEnZoygMXlPPVWilbi8o-14" value="" style="endArrow=none;html=1;rounded=0;exitX=1;exitY=0.5;exitDx=0;exitDy=0;exitPerimeter=0;entryX=0;entryY=0.2;entryDx=0;entryDy=0;entryPerimeter=0;" parent="1" source="MEnZoygMXlPPVWilbi8o-4" edge="1">
          <mxGeometry relative="1" as="geometry">
            <mxPoint x="320" y="569.99" as="sourcePoint" />
            <mxPoint x="362" y="550.19" as="targetPoint" />
          </mxGeometry>
        </mxCell>
        <mxCell id="MEnZoygMXlPPVWilbi8o-15" value="1" style="resizable=0;html=1;align=right;verticalAlign=bottom;" parent="MEnZoygMXlPPVWilbi8o-14" connectable="0" vertex="1">
          <mxGeometry x="1" relative="1" as="geometry">
            <mxPoint x="-30" as="offset" />
          </mxGeometry>
        </mxCell>
        <mxCell id="MEnZoygMXlPPVWilbi8o-16" value="" style="endArrow=none;html=1;rounded=0;exitX=0.5;exitY=0;exitDx=0;exitDy=0;entryX=0.5;entryY=1;entryDx=0;entryDy=0;" parent="1" source="MEnZoygMXlPPVWilbi8o-4" target="MEnZoygMXlPPVWilbi8o-1" edge="1">
          <mxGeometry relative="1" as="geometry">
            <mxPoint x="254" y="350" as="sourcePoint" />
            <mxPoint x="414" y="350" as="targetPoint" />
          </mxGeometry>
        </mxCell>
        <mxCell id="MEnZoygMXlPPVWilbi8o-17" value="N" style="resizable=0;html=1;align=right;verticalAlign=bottom;" parent="MEnZoygMXlPPVWilbi8o-16" connectable="0" vertex="1">
          <mxGeometry x="1" relative="1" as="geometry">
            <mxPoint x="20" y="200" as="offset" />
          </mxGeometry>
        </mxCell>
        <mxCell id="MEnZoygMXlPPVWilbi8o-18" value="" style="endArrow=none;html=1;rounded=0;entryX=0.5;entryY=1;entryDx=0;entryDy=0;exitX=0.5;exitY=0;exitDx=0;exitDy=0;" parent="1" source="MEnZoygMXlPPVWilbi8o-9" target="MEnZoygMXlPPVWilbi8o-2" edge="1">
          <mxGeometry relative="1" as="geometry">
            <mxPoint x="560" y="380" as="sourcePoint" />
            <mxPoint x="499.8" y="330" as="targetPoint" />
          </mxGeometry>
        </mxCell>
        <mxCell id="MEnZoygMXlPPVWilbi8o-19" value="M" style="resizable=0;html=1;align=right;verticalAlign=bottom;" parent="MEnZoygMXlPPVWilbi8o-18" connectable="0" vertex="1">
          <mxGeometry x="1" relative="1" as="geometry">
            <mxPoint x="-10" y="200" as="offset" />
          </mxGeometry>
        </mxCell>
        <mxCell id="MEnZoygMXlPPVWilbi8o-20" value="" style="endArrow=none;html=1;rounded=0;exitX=0;exitY=0.5;exitDx=0;exitDy=0;entryX=0.999;entryY=0.196;entryDx=0;entryDy=0;entryPerimeter=0;" parent="1" source="MEnZoygMXlPPVWilbi8o-9" edge="1">
          <mxGeometry relative="1" as="geometry">
            <mxPoint x="490" y="560.19" as="sourcePoint" />
            <mxPoint x="481.8799999999999" y="549.99" as="targetPoint" />
          </mxGeometry>
        </mxCell>
        <mxCell id="MEnZoygMXlPPVWilbi8o-21" value="1" style="resizable=0;html=1;align=right;verticalAlign=bottom;" parent="MEnZoygMXlPPVWilbi8o-20" connectable="0" vertex="1">
          <mxGeometry x="1" relative="1" as="geometry">
            <mxPoint x="40" as="offset" />
          </mxGeometry>
        </mxCell>
        <mxCell id="MEnZoygMXlPPVWilbi8o-22" value="" style="endArrow=none;html=1;rounded=0;entryX=1;entryY=0.5;entryDx=0;entryDy=0;exitX=0;exitY=0.5;exitDx=0;exitDy=0;" parent="1" source="MEnZoygMXlPPVWilbi8o-38" target="MEnZoygMXlPPVWilbi8o-1" edge="1">
          <mxGeometry relative="1" as="geometry">
            <mxPoint x="380" y="320" as="sourcePoint" />
            <mxPoint x="540" y="320" as="targetPoint" />
          </mxGeometry>
        </mxCell>
        <mxCell id="MEnZoygMXlPPVWilbi8o-25" value="N" style="resizable=0;html=1;align=left;verticalAlign=bottom;direction=west;" parent="1" connectable="0" vertex="1">
          <mxGeometry x="360" y="305" as="geometry" />
        </mxCell>
        <mxCell id="MEnZoygMXlPPVWilbi8o-27" value="Пользователи" style="whiteSpace=wrap;html=1;align=center;" parent="1" vertex="1">
          <mxGeometry x="360" y="41.25" width="120" height="40" as="geometry" />
        </mxCell>
        <mxCell id="MEnZoygMXlPPVWilbi8o-28" value="Сохраняют" style="shape=rhombus;perimeter=rhombusPerimeter;whiteSpace=wrap;html=1;align=center;" parent="1" vertex="1">
          <mxGeometry x="171" y="41.25" width="120" height="40" as="geometry" />
        </mxCell>
        <mxCell id="MEnZoygMXlPPVWilbi8o-29" value="" style="endArrow=none;html=1;rounded=0;exitX=1;exitY=0.5;exitDx=0;exitDy=0;entryX=0;entryY=0.5;entryDx=0;entryDy=0;" parent="1" source="MEnZoygMXlPPVWilbi8o-28" target="MEnZoygMXlPPVWilbi8o-27" edge="1">
          <mxGeometry relative="1" as="geometry">
            <mxPoint x="325" y="63.549999999999955" as="sourcePoint" />
            <mxPoint x="365" y="63.549999999999955" as="targetPoint" />
          </mxGeometry>
        </mxCell>
        <mxCell id="MEnZoygMXlPPVWilbi8o-30" value="K" style="resizable=0;html=1;align=right;verticalAlign=bottom;" parent="MEnZoygMXlPPVWilbi8o-29" connectable="0" vertex="1">
          <mxGeometry x="1" relative="1" as="geometry">
            <mxPoint x="-56" as="offset" />
          </mxGeometry>
        </mxCell>
        <mxCell id="MEnZoygMXlPPVWilbi8o-31" value="" style="endArrow=none;html=1;rounded=0;entryX=0.5;entryY=1;entryDx=0;entryDy=0;exitX=0.25;exitY=0;exitDx=0;exitDy=0;" parent="1" source="MEnZoygMXlPPVWilbi8o-1" target="MEnZoygMXlPPVWilbi8o-28" edge="1">
          <mxGeometry relative="1" as="geometry">
            <mxPoint x="220" y="260" as="sourcePoint" />
            <mxPoint x="270" y="200" as="targetPoint" />
          </mxGeometry>
        </mxCell>
        <mxCell id="MEnZoygMXlPPVWilbi8o-32" value="N" style="resizable=0;html=1;align=right;verticalAlign=bottom;" parent="MEnZoygMXlPPVWilbi8o-31" connectable="0" vertex="1">
          <mxGeometry x="1" relative="1" as="geometry">
            <mxPoint x="20" y="20" as="offset" />
          </mxGeometry>
        </mxCell>
        <mxCell id="MEnZoygMXlPPVWilbi8o-33" value="Сохраняют" style="shape=rhombus;perimeter=rhombusPerimeter;whiteSpace=wrap;html=1;align=center;" parent="1" vertex="1">
          <mxGeometry x="549" y="41.25" width="120" height="40" as="geometry" />
        </mxCell>
        <mxCell id="MEnZoygMXlPPVWilbi8o-34" value="" style="endArrow=none;html=1;rounded=0;exitX=0;exitY=0.5;exitDx=0;exitDy=0;entryX=1;entryY=0.5;entryDx=0;entryDy=0;" parent="1" source="MEnZoygMXlPPVWilbi8o-33" target="MEnZoygMXlPPVWilbi8o-27" edge="1">
          <mxGeometry relative="1" as="geometry">
            <mxPoint x="501" y="133.75" as="sourcePoint" />
            <mxPoint x="545" y="133.75" as="targetPoint" />
          </mxGeometry>
        </mxCell>
        <mxCell id="MEnZoygMXlPPVWilbi8o-35" value="K" style="resizable=0;html=1;align=right;verticalAlign=bottom;" parent="MEnZoygMXlPPVWilbi8o-34" connectable="0" vertex="1">
          <mxGeometry x="1" relative="1" as="geometry">
            <mxPoint x="73" as="offset" />
          </mxGeometry>
        </mxCell>
        <mxCell id="MEnZoygMXlPPVWilbi8o-36" value="" style="endArrow=none;html=1;rounded=0;entryX=0.5;entryY=1;entryDx=0;entryDy=0;exitX=0.75;exitY=0;exitDx=0;exitDy=0;" parent="1" source="MEnZoygMXlPPVWilbi8o-2" target="MEnZoygMXlPPVWilbi8o-33" edge="1">
          <mxGeometry relative="1" as="geometry">
            <mxPoint x="560" y="280" as="sourcePoint" />
            <mxPoint x="560" y="160" as="targetPoint" />
          </mxGeometry>
        </mxCell>
        <mxCell id="MEnZoygMXlPPVWilbi8o-37" value="M" style="resizable=0;html=1;align=right;verticalAlign=bottom;" parent="MEnZoygMXlPPVWilbi8o-36" connectable="0" vertex="1">
          <mxGeometry x="1" relative="1" as="geometry">
            <mxPoint x="-10" y="20" as="offset" />
          </mxGeometry>
        </mxCell>
        <mxCell id="MEnZoygMXlPPVWilbi8o-38" value="Являются переводами" style="shape=rhombus;perimeter=rhombusPerimeter;whiteSpace=wrap;html=1;align=center;" parent="1" vertex="1">
          <mxGeometry x="372" y="268.75" width="96" height="72.5" as="geometry" />
        </mxCell>
        <mxCell id="MEnZoygMXlPPVWilbi8o-42" value="" style="endArrow=none;html=1;rounded=0;exitX=0;exitY=0.5;exitDx=0;exitDy=0;entryX=1;entryY=0.5;entryDx=0;entryDy=0;" parent="1" source="MEnZoygMXlPPVWilbi8o-2" target="MEnZoygMXlPPVWilbi8o-38" edge="1">
          <mxGeometry relative="1" as="geometry">
            <mxPoint x="530" y="150" as="sourcePoint" />
            <mxPoint x="474" y="150" as="targetPoint" />
          </mxGeometry>
        </mxCell>
        <mxCell id="MEnZoygMXlPPVWilbi8o-43" value="M" style="resizable=0;html=1;align=right;verticalAlign=bottom;" parent="MEnZoygMXlPPVWilbi8o-42" connectable="0" vertex="1">
          <mxGeometry x="1" relative="1" as="geometry">
            <mxPoint x="12" as="offset" />
          </mxGeometry>
        </mxCell>
        <mxCell id="MEnZoygMXlPPVWilbi8o-44" value="" style="line;strokeWidth=1;rotatable=0;dashed=0;labelPosition=right;align=left;verticalAlign=middle;spacingTop=0;spacingLeft=6;points=[];portConstraint=eastwest;direction=south;" parent="1" vertex="1">
          <mxGeometry x="415" y="590.19" width="10" height="69.81" as="geometry" />
        </mxCell>
        <mxCell id="MEnZoygMXlPPVWilbi8o-45" value="Список элементов" style="ellipse;whiteSpace=wrap;html=1;align=center;fontStyle=4;" parent="1" vertex="1">
          <mxGeometry x="420" y="620.19" width="100" height="40" as="geometry" />
        </mxCell>
        <mxCell id="MEnZoygMXlPPVWilbi8o-48" value="Список слов" style="ellipse;whiteSpace=wrap;html=1;align=center;fontStyle=4;direction=south;" parent="1" vertex="1">
          <mxGeometry x="170" y="341.25" width="50" height="45" as="geometry" />
        </mxCell>
        <mxCell id="MEnZoygMXlPPVWilbi8o-51" value="ID структурной&lt;br&gt;модели" style="ellipse;whiteSpace=wrap;html=1;align=center;" parent="1" vertex="1">
          <mxGeometry x="90" y="370" width="80" height="55" as="geometry" />
        </mxCell>
        <mxCell id="MEnZoygMXlPPVWilbi8o-56" value="" style="line;strokeWidth=1;rotatable=0;dashed=0;labelPosition=right;align=left;verticalAlign=middle;spacingTop=0;spacingLeft=6;points=[];portConstraint=eastwest;direction=south;" parent="1" vertex="1">
          <mxGeometry x="417.25" y="-106.25" width="10" height="147.5" as="geometry" />
        </mxCell>
        <mxCell id="MEnZoygMXlPPVWilbi8o-57" value="ID" style="ellipse;whiteSpace=wrap;html=1;align=center;fontStyle=4;" parent="1" vertex="1">
          <mxGeometry x="422.75" y="-6.25" width="43" height="40" as="geometry" />
        </mxCell>
        <mxCell id="MEnZoygMXlPPVWilbi8o-60" value="ID" style="ellipse;whiteSpace=wrap;html=1;align=center;fontStyle=4;" parent="1" vertex="1">
          <mxGeometry x="370" y="600.19" width="50" height="45" as="geometry" />
        </mxCell>
        <mxCell id="MEnZoygMXlPPVWilbi8o-62" value="Содержатся" style="shape=rhombus;perimeter=rhombusPerimeter;whiteSpace=wrap;html=1;align=center;" parent="1" vertex="1">
          <mxGeometry x="240" y="208.75" width="100" height="40" as="geometry" />
        </mxCell>
        <mxCell id="MEnZoygMXlPPVWilbi8o-63" value="" style="endArrow=none;html=1;rounded=0;exitX=1;exitY=0.5;exitDx=0;exitDy=0;entryX=0;entryY=0.5;entryDx=0;entryDy=0;" parent="1" source="MEnZoygMXlPPVWilbi8o-62" edge="1">
          <mxGeometry relative="1" as="geometry">
            <mxPoint x="394" y="133.54999999999995" as="sourcePoint" />
            <mxPoint x="360" y="228.75" as="targetPoint" />
          </mxGeometry>
        </mxCell>
        <mxCell id="MEnZoygMXlPPVWilbi8o-64" value="L" style="resizable=0;html=1;align=right;verticalAlign=bottom;" parent="MEnZoygMXlPPVWilbi8o-63" connectable="0" vertex="1">
          <mxGeometry x="1" relative="1" as="geometry">
            <mxPoint x="-10" as="offset" />
          </mxGeometry>
        </mxCell>
        <mxCell id="MEnZoygMXlPPVWilbi8o-65" value="" style="endArrow=none;html=1;rounded=0;entryX=0.5;entryY=1;entryDx=0;entryDy=0;exitX=0.75;exitY=0;exitDx=0;exitDy=0;" parent="1" source="MEnZoygMXlPPVWilbi8o-1" target="MEnZoygMXlPPVWilbi8o-62" edge="1">
          <mxGeometry relative="1" as="geometry">
            <mxPoint x="310" y="260" as="sourcePoint" />
            <mxPoint x="340" y="310" as="targetPoint" />
          </mxGeometry>
        </mxCell>
        <mxCell id="MEnZoygMXlPPVWilbi8o-66" value="N" style="resizable=0;html=1;align=right;verticalAlign=bottom;" parent="MEnZoygMXlPPVWilbi8o-65" connectable="0" vertex="1">
          <mxGeometry x="1" relative="1" as="geometry">
            <mxPoint x="20" y="20" as="offset" />
          </mxGeometry>
        </mxCell>
        <mxCell id="MEnZoygMXlPPVWilbi8o-67" value="Содержатся" style="shape=rhombus;perimeter=rhombusPerimeter;whiteSpace=wrap;html=1;align=center;" parent="1" vertex="1">
          <mxGeometry x="500" y="208.75" width="100" height="40" as="geometry" />
        </mxCell>
        <mxCell id="MEnZoygMXlPPVWilbi8o-68" value="" style="endArrow=none;html=1;rounded=0;exitX=0;exitY=0.5;exitDx=0;exitDy=0;entryX=1;entryY=0.5;entryDx=0;entryDy=0;" parent="1" source="MEnZoygMXlPPVWilbi8o-67" edge="1">
          <mxGeometry relative="1" as="geometry">
            <mxPoint x="644" y="133.54999999999995" as="sourcePoint" />
            <mxPoint x="480" y="228.75" as="targetPoint" />
          </mxGeometry>
        </mxCell>
        <mxCell id="MEnZoygMXlPPVWilbi8o-69" value="L" style="resizable=0;html=1;align=right;verticalAlign=bottom;" parent="MEnZoygMXlPPVWilbi8o-68" connectable="0" vertex="1">
          <mxGeometry x="1" relative="1" as="geometry">
            <mxPoint x="20" as="offset" />
          </mxGeometry>
        </mxCell>
        <mxCell id="MEnZoygMXlPPVWilbi8o-70" value="" style="endArrow=none;html=1;rounded=0;entryX=0.5;entryY=1;entryDx=0;entryDy=0;exitX=0.25;exitY=0;exitDx=0;exitDy=0;" parent="1" source="MEnZoygMXlPPVWilbi8o-2" target="MEnZoygMXlPPVWilbi8o-67" edge="1">
          <mxGeometry relative="1" as="geometry">
            <mxPoint x="540" y="280" as="sourcePoint" />
            <mxPoint x="590" y="310" as="targetPoint" />
          </mxGeometry>
        </mxCell>
        <mxCell id="MEnZoygMXlPPVWilbi8o-71" value="M" style="resizable=0;html=1;align=right;verticalAlign=bottom;" parent="MEnZoygMXlPPVWilbi8o-70" connectable="0" vertex="1">
          <mxGeometry x="1" relative="1" as="geometry">
            <mxPoint x="-10" y="20" as="offset" />
          </mxGeometry>
        </mxCell>
        <mxCell id="MEnZoygMXlPPVWilbi8o-72" value="" style="line;strokeWidth=1;rotatable=0;dashed=0;labelPosition=right;align=left;verticalAlign=middle;spacingTop=0;spacingLeft=6;points=[];portConstraint=eastwest;direction=south;" parent="1" vertex="1">
          <mxGeometry x="417" y="93.75" width="10" height="110" as="geometry" />
        </mxCell>
        <mxCell id="MEnZoygMXlPPVWilbi8o-73" value="Текст" style="ellipse;whiteSpace=wrap;html=1;align=center;fontStyle=4;" parent="1" vertex="1">
          <mxGeometry x="422" y="123.75" width="48" height="40" as="geometry" />
        </mxCell>
        <mxCell id="MEnZoygMXlPPVWilbi8o-74" value="ID" style="ellipse;whiteSpace=wrap;html=1;align=center;fontStyle=4;" parent="1" vertex="1">
          <mxGeometry x="372" y="153.75" width="50" height="40" as="geometry" />
        </mxCell>
        <mxCell id="MEnZoygMXlPPVWilbi8o-75" value="ID" style="ellipse;whiteSpace=wrap;html=1;align=center;fontStyle=4;direction=south;" parent="1" vertex="1">
          <mxGeometry x="120" y="315" width="50" height="45" as="geometry" />
        </mxCell>
        <mxCell id="MEnZoygMXlPPVWilbi8o-77" value="Пароль" style="ellipse;whiteSpace=wrap;html=1;align=center;" parent="1" vertex="1">
          <mxGeometry x="358.25" y="-80" width="64" height="42.5" as="geometry" />
        </mxCell>
        <mxCell id="MEnZoygMXlPPVWilbi8o-79" value="Дата регистрации" style="ellipse;whiteSpace=wrap;html=1;align=center;" parent="1" vertex="1">
          <mxGeometry x="422.75" y="-57.5" width="80" height="50" as="geometry" />
        </mxCell>
        <mxCell id="MEnZoygMXlPPVWilbi8o-81" value="Дата добавления" style="ellipse;whiteSpace=wrap;html=1;align=center;" parent="1" vertex="1">
          <mxGeometry x="170" y="390" width="80" height="55" as="geometry" />
        </mxCell>
        <mxCell id="MEnZoygMXlPPVWilbi8o-82" value="Дата добавления" style="ellipse;whiteSpace=wrap;html=1;align=center;" parent="1" vertex="1">
          <mxGeometry x="342" y="93.75" width="80" height="55" as="geometry" />
        </mxCell>
        <mxCell id="b_QlDgpn11V66arvJ2R6-20" value="Элементы слоя" style="whiteSpace=wrap;html=1;align=center;" parent="1" vertex="1">
          <mxGeometry x="90" y="623.86" width="120" height="40" as="geometry" />
        </mxCell>
        <mxCell id="b_QlDgpn11V66arvJ2R6-27" value="" style="line;strokeWidth=1;rotatable=0;dashed=0;labelPosition=right;align=left;verticalAlign=middle;spacingTop=0;spacingLeft=6;points=[];portConstraint=eastwest;direction=south;" parent="1" vertex="1">
          <mxGeometry x="145" y="663.86" width="10" height="70" as="geometry" />
        </mxCell>
        <mxCell id="b_QlDgpn11V66arvJ2R6-28" value="Название" style="ellipse;whiteSpace=wrap;html=1;align=center;fontStyle=4;" parent="1" vertex="1">
          <mxGeometry x="150" y="668.86" width="90" height="40" as="geometry" />
        </mxCell>
        <mxCell id="b_QlDgpn11V66arvJ2R6-29" value="ID" style="ellipse;whiteSpace=wrap;html=1;align=center;fontStyle=4;" parent="1" vertex="1">
          <mxGeometry x="100" y="683.86" width="50" height="45" as="geometry" />
        </mxCell>
        <mxCell id="b_QlDgpn11V66arvJ2R6-32" value="Состоят из" style="shape=rhombus;perimeter=rhombusPerimeter;whiteSpace=wrap;html=1;align=center;" parent="1" vertex="1">
          <mxGeometry x="90" y="560.19" width="120" height="40" as="geometry" />
        </mxCell>
        <mxCell id="b_QlDgpn11V66arvJ2R6-34" value="" style="endArrow=none;html=1;rounded=0;exitX=1;exitY=0.5;exitDx=0;exitDy=0;entryX=-0.003;entryY=0.796;entryDx=0;entryDy=0;entryPerimeter=0;" parent="1" source="b_QlDgpn11V66arvJ2R6-32" edge="1">
          <mxGeometry relative="1" as="geometry">
            <mxPoint x="225.00000000000023" y="579.8500000000001" as="sourcePoint" />
            <mxPoint x="361.6399999999999" y="579.99" as="targetPoint" />
          </mxGeometry>
        </mxCell>
        <mxCell id="b_QlDgpn11V66arvJ2R6-35" value="P" style="resizable=0;html=1;align=right;verticalAlign=bottom;" parent="b_QlDgpn11V66arvJ2R6-34" connectable="0" vertex="1">
          <mxGeometry x="1" relative="1" as="geometry">
            <mxPoint x="-141" y="20" as="offset" />
          </mxGeometry>
        </mxCell>
        <mxCell id="b_QlDgpn11V66arvJ2R6-36" value="" style="endArrow=none;html=1;rounded=0;exitX=0.5;exitY=0;exitDx=0;exitDy=0;entryX=0.5;entryY=1;entryDx=0;entryDy=0;" parent="1" source="b_QlDgpn11V66arvJ2R6-20" target="b_QlDgpn11V66arvJ2R6-32" edge="1">
          <mxGeometry relative="1" as="geometry">
            <mxPoint x="270" y="540.19" as="sourcePoint" />
            <mxPoint x="270" y="490.18999999999994" as="targetPoint" />
          </mxGeometry>
        </mxCell>
        <mxCell id="b_QlDgpn11V66arvJ2R6-37" value="Q" style="resizable=0;html=1;align=right;verticalAlign=bottom;" parent="b_QlDgpn11V66arvJ2R6-36" connectable="0" vertex="1">
          <mxGeometry x="1" relative="1" as="geometry">
            <mxPoint x="13" y="20" as="offset" />
          </mxGeometry>
        </mxCell>
        <mxCell id="82KKWr9Kmz71Q_NBfK_r-1" value="&lt;u&gt;Имя&lt;/u&gt;" style="ellipse;whiteSpace=wrap;html=1;align=center;" parent="1" vertex="1">
          <mxGeometry x="375.25" y="-26.25" width="47" height="40" as="geometry" />
        </mxCell>
        <mxCell id="M82gKQGlILqdqzGqi8Oo-1" value="Контексты употребления" style="whiteSpace=wrap;html=1;align=center;" parent="1" vertex="1">
          <mxGeometry x="360" y="203.75" width="120" height="45" as="geometry" />
        </mxCell>
        <mxCell id="M82gKQGlILqdqzGqi8Oo-3" value="Модели слоя" style="whiteSpace=wrap;html=1;align=center;" parent="1" vertex="1">
          <mxGeometry x="362" y="540.19" width="120" height="50" as="geometry" />
        </mxCell>
        <mxCell id="Pl-nD0fmqm1sB9lcYUa6-4" value="Роль" style="ellipse;whiteSpace=wrap;html=1;align=center;" parent="1" vertex="1">
          <mxGeometry x="422.75" y="-106.25" width="63.5" height="40" as="geometry" />
        </mxCell>
        <mxCell id="gXByB9mJ8a2uPyQQDqTq-10" value="Характеристики единиц языка" style="whiteSpace=wrap;html=1;align=center;" parent="1" vertex="1">
          <mxGeometry x="362" y="409.99999999999994" width="120" height="50" as="geometry" />
        </mxCell>
        <mxCell id="gXByB9mJ8a2uPyQQDqTq-11" value="Имеют" style="shape=rhombus;perimeter=rhombusPerimeter;whiteSpace=wrap;html=1;align=center;" parent="1" vertex="1">
          <mxGeometry x="280" y="349.99999999999994" width="120" height="40" as="geometry" />
        </mxCell>
        <mxCell id="gXByB9mJ8a2uPyQQDqTq-12" value="Имеют" style="shape=rhombus;perimeter=rhombusPerimeter;whiteSpace=wrap;html=1;align=center;" parent="1" vertex="1">
          <mxGeometry x="440" y="349.99999999999994" width="120" height="40" as="geometry" />
        </mxCell>
        <mxCell id="gXByB9mJ8a2uPyQQDqTq-13" value="" style="endArrow=none;html=1;rounded=0;exitX=0.349;exitY=0.151;exitDx=0;exitDy=0;entryX=0.75;entryY=1;entryDx=0;entryDy=0;exitPerimeter=0;" parent="1" source="gXByB9mJ8a2uPyQQDqTq-11" target="MEnZoygMXlPPVWilbi8o-1" edge="1">
          <mxGeometry relative="1" as="geometry">
            <mxPoint x="270" y="569.81" as="sourcePoint" />
            <mxPoint x="270" y="340" as="targetPoint" />
          </mxGeometry>
        </mxCell>
        <mxCell id="gXByB9mJ8a2uPyQQDqTq-15" value="" style="endArrow=none;html=1;rounded=0;exitX=0.25;exitY=0;exitDx=0;exitDy=0;entryX=0.657;entryY=0.846;entryDx=0;entryDy=0;entryPerimeter=0;" parent="1" source="gXByB9mJ8a2uPyQQDqTq-10" target="gXByB9mJ8a2uPyQQDqTq-11" edge="1">
          <mxGeometry relative="1" as="geometry">
            <mxPoint x="330.5" y="380" as="sourcePoint" />
            <mxPoint x="300" y="340" as="targetPoint" />
          </mxGeometry>
        </mxCell>
        <mxCell id="gXByB9mJ8a2uPyQQDqTq-17" value="" style="endArrow=none;html=1;rounded=0;exitX=0.653;exitY=0.158;exitDx=0;exitDy=0;entryX=0.25;entryY=1;entryDx=0;entryDy=0;exitPerimeter=0;" parent="1" source="gXByB9mJ8a2uPyQQDqTq-12" target="MEnZoygMXlPPVWilbi8o-2" edge="1">
          <mxGeometry relative="1" as="geometry">
            <mxPoint x="400" y="440" as="sourcePoint" />
            <mxPoint x="365.36" y="405.32000000000016" as="targetPoint" />
          </mxGeometry>
        </mxCell>
        <mxCell id="gXByB9mJ8a2uPyQQDqTq-19" value="" style="endArrow=none;html=1;rounded=0;exitX=0.75;exitY=0;exitDx=0;exitDy=0;entryX=0.372;entryY=0.875;entryDx=0;entryDy=0;entryPerimeter=0;" parent="1" source="gXByB9mJ8a2uPyQQDqTq-10" target="gXByB9mJ8a2uPyQQDqTq-12" edge="1">
          <mxGeometry relative="1" as="geometry">
            <mxPoint x="400" y="440" as="sourcePoint" />
            <mxPoint x="365.36" y="405.32000000000016" as="targetPoint" />
          </mxGeometry>
        </mxCell>
        <mxCell id="gXByB9mJ8a2uPyQQDqTq-21" value="N" style="resizable=0;html=1;align=right;verticalAlign=bottom;" parent="1" connectable="0" vertex="1">
          <mxGeometry x="334" y="349.99999999999994" as="geometry" />
        </mxCell>
        <mxCell id="gXByB9mJ8a2uPyQQDqTq-22" value="N" style="resizable=0;html=1;align=right;verticalAlign=bottom;" parent="1" connectable="0" vertex="1">
          <mxGeometry x="520" y="349.99999999999994" as="geometry" />
        </mxCell>
        <mxCell id="gXByB9mJ8a2uPyQQDqTq-23" value="M" style="resizable=0;html=1;align=right;verticalAlign=bottom;" parent="1" connectable="0" vertex="1">
          <mxGeometry x="392" y="399.99999999999994" as="geometry" />
        </mxCell>
        <mxCell id="gXByB9mJ8a2uPyQQDqTq-24" value="M" style="resizable=0;html=1;align=right;verticalAlign=bottom;" parent="1" connectable="0" vertex="1">
          <mxGeometry x="468" y="399.99999999999994" as="geometry" />
        </mxCell>
        <mxCell id="gXByB9mJ8a2uPyQQDqTq-25" value="" style="line;strokeWidth=1;rotatable=0;dashed=0;labelPosition=right;align=left;verticalAlign=middle;spacingTop=0;spacingLeft=6;points=[];portConstraint=eastwest;direction=south;" parent="1" vertex="1">
          <mxGeometry x="417.25" y="460" width="10" height="70" as="geometry" />
        </mxCell>
        <mxCell id="gXByB9mJ8a2uPyQQDqTq-26" value="Характеристика" style="ellipse;whiteSpace=wrap;html=1;align=center;fontStyle=4;" parent="1" vertex="1">
          <mxGeometry x="422.25" y="469.99999999999994" width="100" height="40" as="geometry" />
        </mxCell>
        <mxCell id="gXByB9mJ8a2uPyQQDqTq-27" value="ID" style="ellipse;whiteSpace=wrap;html=1;align=center;fontStyle=4;" parent="1" vertex="1">
          <mxGeometry x="372.25" y="479.99999999999994" width="50" height="45" as="geometry" />
        </mxCell>
        <mxCell id="gXByB9mJ8a2uPyQQDqTq-29" value="" style="endArrow=none;html=1;rounded=0;entryX=0;entryY=0.5;entryDx=0;entryDy=0;" parent="1" target="MEnZoygMXlPPVWilbi8o-1" edge="1">
          <mxGeometry width="50" height="50" relative="1" as="geometry">
            <mxPoint x="170" y="450" as="sourcePoint" />
            <mxPoint x="170" y="320" as="targetPoint" />
            <Array as="points">
              <mxPoint x="170" y="305" />
            </Array>
          </mxGeometry>
        </mxCell>
        <mxCell id="gXByB9mJ8a2uPyQQDqTq-30" value="Список слов" style="ellipse;whiteSpace=wrap;html=1;align=center;fontStyle=4;direction=south;" parent="1" vertex="1">
          <mxGeometry x="620" y="341.25" width="50" height="45" as="geometry" />
        </mxCell>
        <mxCell id="gXByB9mJ8a2uPyQQDqTq-31" value="ID структурной&lt;br&gt;модели" style="ellipse;whiteSpace=wrap;html=1;align=center;" parent="1" vertex="1">
          <mxGeometry x="670" y="370" width="80" height="55" as="geometry" />
        </mxCell>
        <mxCell id="gXByB9mJ8a2uPyQQDqTq-32" value="ID" style="ellipse;whiteSpace=wrap;html=1;align=center;fontStyle=4;direction=south;" parent="1" vertex="1">
          <mxGeometry x="670" y="315" width="50" height="45" as="geometry" />
        </mxCell>
        <mxCell id="gXByB9mJ8a2uPyQQDqTq-33" value="Дата добавления" style="ellipse;whiteSpace=wrap;html=1;align=center;" parent="1" vertex="1">
          <mxGeometry x="590" y="390" width="80" height="55" as="geometry" />
        </mxCell>
        <mxCell id="gXByB9mJ8a2uPyQQDqTq-34" value="" style="endArrow=none;html=1;rounded=0;entryX=1;entryY=0.5;entryDx=0;entryDy=0;" parent="1" target="MEnZoygMXlPPVWilbi8o-2" edge="1">
          <mxGeometry width="50" height="50" relative="1" as="geometry">
            <mxPoint x="670" y="450" as="sourcePoint" />
            <mxPoint x="760" y="325" as="targetPoint" />
            <Array as="points">
              <mxPoint x="670" y="305" />
            </Array>
          </mxGeometry>
        </mxCell>
      </root>
    </mxGraphModel>
  </diagram>
  <diagram id="CzFluk79J02qhcCVG0Cy" name="Страница 2">
    <mxGraphModel dx="868" dy="453" grid="1" gridSize="10" guides="1" tooltips="1" connect="1" arrows="1" fold="1" page="1" pageScale="1" pageWidth="827" pageHeight="1169" math="0" shadow="0">
      <root>
        <mxCell id="0" />
        <mxCell id="1" parent="0" />
        <mxCell id="s9S4bK3jLP_xvABqHgaO-1" value="Единицы иностранного языка" style="shape=ext;margin=3;double=1;whiteSpace=wrap;html=1;align=center;" vertex="1" parent="1">
          <mxGeometry x="200" y="280" width="120" height="50" as="geometry" />
        </mxCell>
        <mxCell id="s9S4bK3jLP_xvABqHgaO-2" value="Единицы русского языка" style="shape=ext;margin=3;double=1;whiteSpace=wrap;html=1;align=center;" vertex="1" parent="1">
          <mxGeometry x="520" y="280" width="120" height="50" as="geometry" />
        </mxCell>
        <mxCell id="s9S4bK3jLP_xvABqHgaO-3" value="Соответствуют" style="shape=rhombus;perimeter=rhombusPerimeter;whiteSpace=wrap;html=1;align=center;" vertex="1" parent="1">
          <mxGeometry x="200" y="350.00000000000006" width="120" height="40" as="geometry" />
        </mxCell>
        <mxCell id="s9S4bK3jLP_xvABqHgaO-4" value="Соответствуют" style="shape=rhombus;perimeter=rhombusPerimeter;whiteSpace=wrap;html=1;align=center;" vertex="1" parent="1">
          <mxGeometry x="520" y="350.00000000000006" width="120" height="40" as="geometry" />
        </mxCell>
        <mxCell id="s9S4bK3jLP_xvABqHgaO-5" value="" style="endArrow=none;html=1;rounded=0;exitX=1;exitY=0.5;exitDx=0;exitDy=0;exitPerimeter=0;entryX=0;entryY=0.2;entryDx=0;entryDy=0;entryPerimeter=0;" edge="1" parent="1" source="s9S4bK3jLP_xvABqHgaO-3">
          <mxGeometry relative="1" as="geometry">
            <mxPoint x="320" y="389.8" as="sourcePoint" />
            <mxPoint x="362" y="370.00000000000006" as="targetPoint" />
          </mxGeometry>
        </mxCell>
        <mxCell id="s9S4bK3jLP_xvABqHgaO-6" value="1" style="resizable=0;html=1;align=right;verticalAlign=bottom;" connectable="0" vertex="1" parent="s9S4bK3jLP_xvABqHgaO-5">
          <mxGeometry x="1" relative="1" as="geometry">
            <mxPoint x="-30" as="offset" />
          </mxGeometry>
        </mxCell>
        <mxCell id="s9S4bK3jLP_xvABqHgaO-7" value="" style="endArrow=none;html=1;rounded=0;exitX=0.5;exitY=0;exitDx=0;exitDy=0;entryX=0.5;entryY=1;entryDx=0;entryDy=0;" edge="1" parent="1" source="s9S4bK3jLP_xvABqHgaO-3" target="s9S4bK3jLP_xvABqHgaO-1">
          <mxGeometry relative="1" as="geometry">
            <mxPoint x="254" y="350" as="sourcePoint" />
            <mxPoint x="414" y="350" as="targetPoint" />
          </mxGeometry>
        </mxCell>
        <mxCell id="s9S4bK3jLP_xvABqHgaO-8" value="N" style="resizable=0;html=1;align=right;verticalAlign=bottom;" connectable="0" vertex="1" parent="s9S4bK3jLP_xvABqHgaO-7">
          <mxGeometry x="1" relative="1" as="geometry">
            <mxPoint x="20" y="20" as="offset" />
          </mxGeometry>
        </mxCell>
        <mxCell id="s9S4bK3jLP_xvABqHgaO-9" value="" style="endArrow=none;html=1;rounded=0;entryX=0.5;entryY=1;entryDx=0;entryDy=0;exitX=0.5;exitY=0;exitDx=0;exitDy=0;" edge="1" parent="1" source="s9S4bK3jLP_xvABqHgaO-4" target="s9S4bK3jLP_xvABqHgaO-2">
          <mxGeometry relative="1" as="geometry">
            <mxPoint x="560" y="380" as="sourcePoint" />
            <mxPoint x="499.8" y="330" as="targetPoint" />
          </mxGeometry>
        </mxCell>
        <mxCell id="s9S4bK3jLP_xvABqHgaO-10" value="M" style="resizable=0;html=1;align=right;verticalAlign=bottom;" connectable="0" vertex="1" parent="s9S4bK3jLP_xvABqHgaO-9">
          <mxGeometry x="1" relative="1" as="geometry">
            <mxPoint x="-10" y="20" as="offset" />
          </mxGeometry>
        </mxCell>
        <mxCell id="s9S4bK3jLP_xvABqHgaO-11" value="" style="endArrow=none;html=1;rounded=0;exitX=0;exitY=0.5;exitDx=0;exitDy=0;entryX=0.999;entryY=0.196;entryDx=0;entryDy=0;entryPerimeter=0;" edge="1" parent="1" source="s9S4bK3jLP_xvABqHgaO-4">
          <mxGeometry relative="1" as="geometry">
            <mxPoint x="490" y="380.00000000000006" as="sourcePoint" />
            <mxPoint x="481.8799999999999" y="369.8" as="targetPoint" />
          </mxGeometry>
        </mxCell>
        <mxCell id="s9S4bK3jLP_xvABqHgaO-12" value="1" style="resizable=0;html=1;align=right;verticalAlign=bottom;" connectable="0" vertex="1" parent="s9S4bK3jLP_xvABqHgaO-11">
          <mxGeometry x="1" relative="1" as="geometry">
            <mxPoint x="40" as="offset" />
          </mxGeometry>
        </mxCell>
        <mxCell id="s9S4bK3jLP_xvABqHgaO-13" value="" style="endArrow=none;html=1;rounded=0;entryX=1;entryY=0.5;entryDx=0;entryDy=0;exitX=0;exitY=0.5;exitDx=0;exitDy=0;" edge="1" parent="1" source="s9S4bK3jLP_xvABqHgaO-26" target="s9S4bK3jLP_xvABqHgaO-1">
          <mxGeometry relative="1" as="geometry">
            <mxPoint x="380" y="320" as="sourcePoint" />
            <mxPoint x="540" y="320" as="targetPoint" />
          </mxGeometry>
        </mxCell>
        <mxCell id="s9S4bK3jLP_xvABqHgaO-14" value="N" style="resizable=0;html=1;align=left;verticalAlign=bottom;direction=west;" connectable="0" vertex="1" parent="1">
          <mxGeometry x="360" y="305" as="geometry" />
        </mxCell>
        <mxCell id="s9S4bK3jLP_xvABqHgaO-15" value="Пользователи" style="whiteSpace=wrap;html=1;align=center;" vertex="1" parent="1">
          <mxGeometry x="360" y="35.15" width="120" height="40" as="geometry" />
        </mxCell>
        <mxCell id="s9S4bK3jLP_xvABqHgaO-16" value="Сохраняют" style="shape=rhombus;perimeter=rhombusPerimeter;whiteSpace=wrap;html=1;align=center;" vertex="1" parent="1">
          <mxGeometry x="171" y="35.15" width="120" height="40" as="geometry" />
        </mxCell>
        <mxCell id="s9S4bK3jLP_xvABqHgaO-17" value="" style="endArrow=none;html=1;rounded=0;exitX=1;exitY=0.5;exitDx=0;exitDy=0;entryX=0;entryY=0.5;entryDx=0;entryDy=0;" edge="1" parent="1" source="s9S4bK3jLP_xvABqHgaO-16" target="s9S4bK3jLP_xvABqHgaO-15">
          <mxGeometry relative="1" as="geometry">
            <mxPoint x="325" y="57.44999999999995" as="sourcePoint" />
            <mxPoint x="365" y="57.44999999999995" as="targetPoint" />
          </mxGeometry>
        </mxCell>
        <mxCell id="s9S4bK3jLP_xvABqHgaO-18" value="K" style="resizable=0;html=1;align=right;verticalAlign=bottom;" connectable="0" vertex="1" parent="s9S4bK3jLP_xvABqHgaO-17">
          <mxGeometry x="1" relative="1" as="geometry">
            <mxPoint x="-56" as="offset" />
          </mxGeometry>
        </mxCell>
        <mxCell id="s9S4bK3jLP_xvABqHgaO-19" value="" style="endArrow=none;html=1;rounded=0;entryX=0.5;entryY=1;entryDx=0;entryDy=0;exitX=0.25;exitY=0;exitDx=0;exitDy=0;" edge="1" parent="1" source="s9S4bK3jLP_xvABqHgaO-1" target="s9S4bK3jLP_xvABqHgaO-16">
          <mxGeometry relative="1" as="geometry">
            <mxPoint x="220" y="260" as="sourcePoint" />
            <mxPoint x="270" y="200" as="targetPoint" />
          </mxGeometry>
        </mxCell>
        <mxCell id="s9S4bK3jLP_xvABqHgaO-20" value="N" style="resizable=0;html=1;align=right;verticalAlign=bottom;" connectable="0" vertex="1" parent="s9S4bK3jLP_xvABqHgaO-19">
          <mxGeometry x="1" relative="1" as="geometry">
            <mxPoint x="20" y="20" as="offset" />
          </mxGeometry>
        </mxCell>
        <mxCell id="s9S4bK3jLP_xvABqHgaO-21" value="Сохраняют" style="shape=rhombus;perimeter=rhombusPerimeter;whiteSpace=wrap;html=1;align=center;" vertex="1" parent="1">
          <mxGeometry x="549" y="35.15" width="120" height="40" as="geometry" />
        </mxCell>
        <mxCell id="s9S4bK3jLP_xvABqHgaO-22" value="" style="endArrow=none;html=1;rounded=0;exitX=0;exitY=0.5;exitDx=0;exitDy=0;entryX=1;entryY=0.5;entryDx=0;entryDy=0;" edge="1" parent="1" source="s9S4bK3jLP_xvABqHgaO-21" target="s9S4bK3jLP_xvABqHgaO-15">
          <mxGeometry relative="1" as="geometry">
            <mxPoint x="501" y="127.64999999999999" as="sourcePoint" />
            <mxPoint x="545" y="127.64999999999999" as="targetPoint" />
          </mxGeometry>
        </mxCell>
        <mxCell id="s9S4bK3jLP_xvABqHgaO-23" value="K" style="resizable=0;html=1;align=right;verticalAlign=bottom;" connectable="0" vertex="1" parent="s9S4bK3jLP_xvABqHgaO-22">
          <mxGeometry x="1" relative="1" as="geometry">
            <mxPoint x="73" as="offset" />
          </mxGeometry>
        </mxCell>
        <mxCell id="s9S4bK3jLP_xvABqHgaO-24" value="" style="endArrow=none;html=1;rounded=0;entryX=0.5;entryY=1;entryDx=0;entryDy=0;exitX=0.75;exitY=0;exitDx=0;exitDy=0;" edge="1" parent="1" source="s9S4bK3jLP_xvABqHgaO-2" target="s9S4bK3jLP_xvABqHgaO-21">
          <mxGeometry relative="1" as="geometry">
            <mxPoint x="560" y="280" as="sourcePoint" />
            <mxPoint x="560" y="160" as="targetPoint" />
          </mxGeometry>
        </mxCell>
        <mxCell id="s9S4bK3jLP_xvABqHgaO-25" value="M" style="resizable=0;html=1;align=right;verticalAlign=bottom;" connectable="0" vertex="1" parent="s9S4bK3jLP_xvABqHgaO-24">
          <mxGeometry x="1" relative="1" as="geometry">
            <mxPoint x="-10" y="20" as="offset" />
          </mxGeometry>
        </mxCell>
        <mxCell id="s9S4bK3jLP_xvABqHgaO-26" value="Являются переводами" style="shape=rhombus;perimeter=rhombusPerimeter;whiteSpace=wrap;html=1;align=center;" vertex="1" parent="1">
          <mxGeometry x="372" y="268.75" width="96" height="72.5" as="geometry" />
        </mxCell>
        <mxCell id="s9S4bK3jLP_xvABqHgaO-27" value="" style="endArrow=none;html=1;rounded=0;exitX=0;exitY=0.5;exitDx=0;exitDy=0;entryX=1;entryY=0.5;entryDx=0;entryDy=0;" edge="1" parent="1" source="s9S4bK3jLP_xvABqHgaO-2" target="s9S4bK3jLP_xvABqHgaO-26">
          <mxGeometry relative="1" as="geometry">
            <mxPoint x="530" y="150" as="sourcePoint" />
            <mxPoint x="474" y="150" as="targetPoint" />
          </mxGeometry>
        </mxCell>
        <mxCell id="s9S4bK3jLP_xvABqHgaO-28" value="M" style="resizable=0;html=1;align=right;verticalAlign=bottom;" connectable="0" vertex="1" parent="s9S4bK3jLP_xvABqHgaO-27">
          <mxGeometry x="1" relative="1" as="geometry">
            <mxPoint x="12" as="offset" />
          </mxGeometry>
        </mxCell>
        <mxCell id="s9S4bK3jLP_xvABqHgaO-36" value="Имеют" style="shape=rhombus;perimeter=rhombusPerimeter;whiteSpace=wrap;html=1;align=center;" vertex="1" parent="1">
          <mxGeometry x="240" y="99.89999999999999" width="100" height="40" as="geometry" />
        </mxCell>
        <mxCell id="s9S4bK3jLP_xvABqHgaO-37" value="" style="endArrow=none;html=1;rounded=0;exitX=1;exitY=0.5;exitDx=0;exitDy=0;entryX=0;entryY=0.5;entryDx=0;entryDy=0;" edge="1" parent="1" source="s9S4bK3jLP_xvABqHgaO-36">
          <mxGeometry relative="1" as="geometry">
            <mxPoint x="394" y="24.699999999999953" as="sourcePoint" />
            <mxPoint x="360" y="119.89999999999999" as="targetPoint" />
          </mxGeometry>
        </mxCell>
        <mxCell id="s9S4bK3jLP_xvABqHgaO-38" value="L" style="resizable=0;html=1;align=right;verticalAlign=bottom;" connectable="0" vertex="1" parent="s9S4bK3jLP_xvABqHgaO-37">
          <mxGeometry x="1" relative="1" as="geometry">
            <mxPoint x="-20" as="offset" />
          </mxGeometry>
        </mxCell>
        <mxCell id="s9S4bK3jLP_xvABqHgaO-39" value="" style="endArrow=none;html=1;rounded=0;entryX=0.5;entryY=1;entryDx=0;entryDy=0;exitX=0.75;exitY=0;exitDx=0;exitDy=0;" edge="1" parent="1" source="s9S4bK3jLP_xvABqHgaO-1" target="s9S4bK3jLP_xvABqHgaO-36">
          <mxGeometry relative="1" as="geometry">
            <mxPoint x="310" y="260" as="sourcePoint" />
            <mxPoint x="340" y="310" as="targetPoint" />
          </mxGeometry>
        </mxCell>
        <mxCell id="s9S4bK3jLP_xvABqHgaO-40" value="N" style="resizable=0;html=1;align=right;verticalAlign=bottom;" connectable="0" vertex="1" parent="s9S4bK3jLP_xvABqHgaO-39">
          <mxGeometry x="1" relative="1" as="geometry">
            <mxPoint x="20" y="20" as="offset" />
          </mxGeometry>
        </mxCell>
        <mxCell id="s9S4bK3jLP_xvABqHgaO-41" value="Имеют" style="shape=rhombus;perimeter=rhombusPerimeter;whiteSpace=wrap;html=1;align=center;" vertex="1" parent="1">
          <mxGeometry x="500" y="99.89999999999999" width="100" height="40" as="geometry" />
        </mxCell>
        <mxCell id="s9S4bK3jLP_xvABqHgaO-42" value="" style="endArrow=none;html=1;rounded=0;exitX=0;exitY=0.5;exitDx=0;exitDy=0;entryX=1;entryY=0.5;entryDx=0;entryDy=0;" edge="1" parent="1" source="s9S4bK3jLP_xvABqHgaO-41">
          <mxGeometry relative="1" as="geometry">
            <mxPoint x="644" y="24.699999999999953" as="sourcePoint" />
            <mxPoint x="480" y="119.89999999999999" as="targetPoint" />
          </mxGeometry>
        </mxCell>
        <mxCell id="s9S4bK3jLP_xvABqHgaO-43" value="L" style="resizable=0;html=1;align=right;verticalAlign=bottom;" connectable="0" vertex="1" parent="s9S4bK3jLP_xvABqHgaO-42">
          <mxGeometry x="1" relative="1" as="geometry">
            <mxPoint x="30" y="-2" as="offset" />
          </mxGeometry>
        </mxCell>
        <mxCell id="s9S4bK3jLP_xvABqHgaO-44" value="" style="endArrow=none;html=1;rounded=0;entryX=0.5;entryY=1;entryDx=0;entryDy=0;exitX=0.25;exitY=0;exitDx=0;exitDy=0;" edge="1" parent="1" source="s9S4bK3jLP_xvABqHgaO-2" target="s9S4bK3jLP_xvABqHgaO-41">
          <mxGeometry relative="1" as="geometry">
            <mxPoint x="540" y="280" as="sourcePoint" />
            <mxPoint x="590" y="310" as="targetPoint" />
          </mxGeometry>
        </mxCell>
        <mxCell id="s9S4bK3jLP_xvABqHgaO-45" value="M" style="resizable=0;html=1;align=right;verticalAlign=bottom;" connectable="0" vertex="1" parent="s9S4bK3jLP_xvABqHgaO-44">
          <mxGeometry x="1" relative="1" as="geometry">
            <mxPoint x="-10" y="20" as="offset" />
          </mxGeometry>
        </mxCell>
        <mxCell id="s9S4bK3jLP_xvABqHgaO-54" value="Элементы слоя" style="whiteSpace=wrap;html=1;align=center;" vertex="1" parent="1">
          <mxGeometry x="90" y="443.6700000000001" width="120" height="40" as="geometry" />
        </mxCell>
        <mxCell id="s9S4bK3jLP_xvABqHgaO-58" value="Состоят из" style="shape=rhombus;perimeter=rhombusPerimeter;whiteSpace=wrap;html=1;align=center;" vertex="1" parent="1">
          <mxGeometry x="90" y="380.00000000000006" width="120" height="40" as="geometry" />
        </mxCell>
        <mxCell id="s9S4bK3jLP_xvABqHgaO-59" value="" style="endArrow=none;html=1;rounded=0;exitX=1;exitY=0.5;exitDx=0;exitDy=0;entryX=-0.003;entryY=0.796;entryDx=0;entryDy=0;entryPerimeter=0;" edge="1" parent="1" source="s9S4bK3jLP_xvABqHgaO-58">
          <mxGeometry relative="1" as="geometry">
            <mxPoint x="225.00000000000023" y="399.6600000000001" as="sourcePoint" />
            <mxPoint x="361.6399999999999" y="399.79999999999995" as="targetPoint" />
          </mxGeometry>
        </mxCell>
        <mxCell id="s9S4bK3jLP_xvABqHgaO-60" value="P" style="resizable=0;html=1;align=right;verticalAlign=bottom;" connectable="0" vertex="1" parent="s9S4bK3jLP_xvABqHgaO-59">
          <mxGeometry x="1" relative="1" as="geometry">
            <mxPoint x="-141" y="20" as="offset" />
          </mxGeometry>
        </mxCell>
        <mxCell id="s9S4bK3jLP_xvABqHgaO-61" value="" style="endArrow=none;html=1;rounded=0;exitX=0.5;exitY=0;exitDx=0;exitDy=0;entryX=0.5;entryY=1;entryDx=0;entryDy=0;" edge="1" parent="1" source="s9S4bK3jLP_xvABqHgaO-54" target="s9S4bK3jLP_xvABqHgaO-58">
          <mxGeometry relative="1" as="geometry">
            <mxPoint x="270" y="360.00000000000006" as="sourcePoint" />
            <mxPoint x="270" y="309.99999999999994" as="targetPoint" />
          </mxGeometry>
        </mxCell>
        <mxCell id="s9S4bK3jLP_xvABqHgaO-62" value="Q" style="resizable=0;html=1;align=right;verticalAlign=bottom;" connectable="0" vertex="1" parent="s9S4bK3jLP_xvABqHgaO-61">
          <mxGeometry x="1" relative="1" as="geometry">
            <mxPoint x="13" y="20" as="offset" />
          </mxGeometry>
        </mxCell>
        <mxCell id="s9S4bK3jLP_xvABqHgaO-64" value="Характеристики единиц языка" style="whiteSpace=wrap;html=1;align=center;" vertex="1" parent="1">
          <mxGeometry x="360" y="94.89999999999999" width="120" height="45" as="geometry" />
        </mxCell>
        <mxCell id="s9S4bK3jLP_xvABqHgaO-65" value="Модели слоя" style="whiteSpace=wrap;html=1;align=center;" vertex="1" parent="1">
          <mxGeometry x="362" y="360.00000000000006" width="120" height="50" as="geometry" />
        </mxCell>
        <mxCell id="s9S4bK3jLP_xvABqHgaO-67" value="Контексты употребления" style="whiteSpace=wrap;html=1;align=center;" vertex="1" parent="1">
          <mxGeometry x="360" y="159.99999999999994" width="120" height="50" as="geometry" />
        </mxCell>
        <mxCell id="s9S4bK3jLP_xvABqHgaO-68" value="Содержатся" style="shape=rhombus;perimeter=rhombusPerimeter;whiteSpace=wrap;html=1;align=center;" vertex="1" parent="1">
          <mxGeometry x="300" y="228.75" width="110" height="40" as="geometry" />
        </mxCell>
        <mxCell id="s9S4bK3jLP_xvABqHgaO-69" value="Содержатся" style="shape=rhombus;perimeter=rhombusPerimeter;whiteSpace=wrap;html=1;align=center;" vertex="1" parent="1">
          <mxGeometry x="429" y="228.75" width="111" height="40" as="geometry" />
        </mxCell>
        <mxCell id="s9S4bK3jLP_xvABqHgaO-70" value="" style="endArrow=none;html=1;rounded=0;entryX=0.909;entryY=-0.002;entryDx=0;entryDy=0;entryPerimeter=0;exitX=0.286;exitY=0.793;exitDx=0;exitDy=0;exitPerimeter=0;" edge="1" parent="1" source="s9S4bK3jLP_xvABqHgaO-68" target="s9S4bK3jLP_xvABqHgaO-1">
          <mxGeometry relative="1" as="geometry">
            <mxPoint x="340" y="280" as="sourcePoint" />
            <mxPoint x="270" y="340" as="targetPoint" />
          </mxGeometry>
        </mxCell>
        <mxCell id="s9S4bK3jLP_xvABqHgaO-71" value="" style="endArrow=none;html=1;rounded=0;exitX=0.25;exitY=1;exitDx=0;exitDy=0;entryX=0.584;entryY=0.085;entryDx=0;entryDy=0;entryPerimeter=0;" edge="1" parent="1" source="s9S4bK3jLP_xvABqHgaO-67" target="s9S4bK3jLP_xvABqHgaO-68">
          <mxGeometry relative="1" as="geometry">
            <mxPoint x="330.5" y="380" as="sourcePoint" />
            <mxPoint x="300" y="340" as="targetPoint" />
          </mxGeometry>
        </mxCell>
        <mxCell id="s9S4bK3jLP_xvABqHgaO-72" value="" style="endArrow=none;html=1;rounded=0;exitX=0.71;exitY=0.793;exitDx=0;exitDy=0;entryX=0.078;entryY=-0.002;entryDx=0;entryDy=0;exitPerimeter=0;entryPerimeter=0;" edge="1" parent="1" source="s9S4bK3jLP_xvABqHgaO-69" target="s9S4bK3jLP_xvABqHgaO-2">
          <mxGeometry relative="1" as="geometry">
            <mxPoint x="400" y="440" as="sourcePoint" />
            <mxPoint x="365.36" y="405.32000000000016" as="targetPoint" />
          </mxGeometry>
        </mxCell>
        <mxCell id="s9S4bK3jLP_xvABqHgaO-73" value="" style="endArrow=none;html=1;rounded=0;exitX=0.75;exitY=1;exitDx=0;exitDy=0;entryX=0.417;entryY=0.09;entryDx=0;entryDy=0;entryPerimeter=0;" edge="1" parent="1" source="s9S4bK3jLP_xvABqHgaO-67" target="s9S4bK3jLP_xvABqHgaO-69">
          <mxGeometry relative="1" as="geometry">
            <mxPoint x="400" y="440" as="sourcePoint" />
            <mxPoint x="365.36" y="405.32000000000016" as="targetPoint" />
          </mxGeometry>
        </mxCell>
        <mxCell id="s9S4bK3jLP_xvABqHgaO-74" value="N" style="resizable=0;html=1;align=right;verticalAlign=bottom;" connectable="0" vertex="1" parent="1">
          <mxGeometry x="340" y="279.99999999999994" as="geometry" />
        </mxCell>
        <mxCell id="s9S4bK3jLP_xvABqHgaO-75" value="N" style="resizable=0;html=1;align=right;verticalAlign=bottom;" connectable="0" vertex="1" parent="1">
          <mxGeometry x="510" y="279.99999999999994" as="geometry" />
        </mxCell>
        <mxCell id="s9S4bK3jLP_xvABqHgaO-76" value="M" style="resizable=0;html=1;align=right;verticalAlign=bottom;" connectable="0" vertex="1" parent="1">
          <mxGeometry x="390" y="239.99999999999994" as="geometry" />
        </mxCell>
        <mxCell id="s9S4bK3jLP_xvABqHgaO-77" value="M" style="resizable=0;html=1;align=right;verticalAlign=bottom;" connectable="0" vertex="1" parent="1">
          <mxGeometry x="460" y="239.99999999999994" as="geometry" />
        </mxCell>
        <mxCell id="s9S4bK3jLP_xvABqHgaO-88" value="" style="endArrow=none;dashed=1;html=1;rounded=0;" edge="1" parent="1">
          <mxGeometry width="50" height="50" relative="1" as="geometry">
            <mxPoint x="350" y="20" as="sourcePoint" />
            <mxPoint x="350" y="20" as="targetPoint" />
            <Array as="points">
              <mxPoint x="490" y="20" />
              <mxPoint x="490" y="220" />
              <mxPoint x="350" y="220" />
            </Array>
          </mxGeometry>
        </mxCell>
      </root>
    </mxGraphModel>
  </diagram>
</mxfile>
